<mxfile host="Electron" modified="2023-06-03T08:17:34.842Z" agent="Mozilla/5.0 (X11; Linux x86_64) AppleWebKit/537.36 (KHTML, like Gecko) draw.io/21.2.8 Chrome/112.0.5615.165 Electron/24.2.0 Safari/537.36" etag="IigdHZ_TivZxUvZIY27f" version="21.2.8" type="device">
  <diagram name="Page-1" id="h16NVl9k838_bdoihAqe">
    <mxGraphModel dx="372" dy="211" grid="1" gridSize="10" guides="1" tooltips="1" connect="1" arrows="1" fold="1" page="1" pageScale="1" pageWidth="850" pageHeight="1100" math="0" shadow="0">
      <root>
        <mxCell id="0" />
        <mxCell id="1" parent="0" />
        <mxCell id="YS5yoJDJzt-pK9fz2Nfm-1" value="" style="whiteSpace=wrap;html=1;aspect=fixed;" parent="1" vertex="1">
          <mxGeometry x="70" y="40" width="270" height="270" as="geometry" />
        </mxCell>
        <mxCell id="YS5yoJDJzt-pK9fz2Nfm-14" value="" style="whiteSpace=wrap;html=1;aspect=fixed;" parent="1" vertex="1">
          <mxGeometry x="70" y="380" width="270" height="270" as="geometry" />
        </mxCell>
        <mxCell id="YS5yoJDJzt-pK9fz2Nfm-24" value="" style="group" parent="1" vertex="1" connectable="0">
          <mxGeometry x="145" y="50" width="120" height="200" as="geometry" />
        </mxCell>
        <mxCell id="YS5yoJDJzt-pK9fz2Nfm-2" value="" style="rounded=0;whiteSpace=wrap;html=1;" parent="YS5yoJDJzt-pK9fz2Nfm-24" vertex="1">
          <mxGeometry y="60" width="120" height="140" as="geometry" />
        </mxCell>
        <mxCell id="YS5yoJDJzt-pK9fz2Nfm-11" value="Rect father" style="edgeStyle=orthogonalEdgeStyle;rounded=0;orthogonalLoop=1;jettySize=auto;html=1;entryX=0.5;entryY=0;entryDx=0;entryDy=0;" parent="YS5yoJDJzt-pK9fz2Nfm-24" edge="1">
          <mxGeometry x="-0.3333" y="5" relative="1" as="geometry">
            <mxPoint x="60" y="30" as="sourcePoint" />
            <mxPoint x="60" y="60" as="targetPoint" />
            <mxPoint as="offset" />
          </mxGeometry>
        </mxCell>
        <mxCell id="YS5yoJDJzt-pK9fz2Nfm-4" value="Menu" style="text;html=1;strokeColor=none;fillColor=none;align=center;verticalAlign=middle;whiteSpace=wrap;rounded=0;" parent="YS5yoJDJzt-pK9fz2Nfm-24" vertex="1">
          <mxGeometry x="30" width="60" height="30" as="geometry" />
        </mxCell>
        <mxCell id="YS5yoJDJzt-pK9fz2Nfm-5" value="Manager Buttons" style="text;html=1;strokeColor=none;fillColor=none;align=center;verticalAlign=middle;whiteSpace=wrap;rounded=0;" parent="YS5yoJDJzt-pK9fz2Nfm-24" vertex="1">
          <mxGeometry x="30" y="60" width="60" height="30" as="geometry" />
        </mxCell>
        <mxCell id="YS5yoJDJzt-pK9fz2Nfm-6" value="Buttons" style="rounded=1;whiteSpace=wrap;html=1;" parent="YS5yoJDJzt-pK9fz2Nfm-24" vertex="1">
          <mxGeometry x="10" y="100" width="100" height="20" as="geometry" />
        </mxCell>
        <mxCell id="YS5yoJDJzt-pK9fz2Nfm-7" value="" style="rounded=1;whiteSpace=wrap;html=1;" parent="YS5yoJDJzt-pK9fz2Nfm-24" vertex="1">
          <mxGeometry x="10" y="123" width="100" height="20" as="geometry" />
        </mxCell>
        <mxCell id="YS5yoJDJzt-pK9fz2Nfm-9" value="" style="rounded=1;whiteSpace=wrap;html=1;" parent="YS5yoJDJzt-pK9fz2Nfm-24" vertex="1">
          <mxGeometry x="10" y="146" width="100" height="20" as="geometry" />
        </mxCell>
        <mxCell id="YS5yoJDJzt-pK9fz2Nfm-10" value="" style="rounded=1;whiteSpace=wrap;html=1;" parent="YS5yoJDJzt-pK9fz2Nfm-24" vertex="1">
          <mxGeometry x="10" y="169" width="100" height="20" as="geometry" />
        </mxCell>
        <mxCell id="pQPsd6ReBPbwiEvOBDqX-1" value="General State" style="text;html=1;strokeColor=none;fillColor=none;align=center;verticalAlign=middle;whiteSpace=wrap;rounded=0;" parent="1" vertex="1">
          <mxGeometry x="200" y="400" width="40" height="30" as="geometry" />
        </mxCell>
        <mxCell id="mgcByYOxAvh-oElJZz-j-1" value="" style="group" vertex="1" connectable="0" parent="1">
          <mxGeometry x="70" y="380" width="120" height="280" as="geometry" />
        </mxCell>
        <mxCell id="YS5yoJDJzt-pK9fz2Nfm-34" value="" style="group" parent="mgcByYOxAvh-oElJZz-j-1" vertex="1" connectable="0">
          <mxGeometry width="120" height="280" as="geometry" />
        </mxCell>
        <mxCell id="YS5yoJDJzt-pK9fz2Nfm-16" value="" style="rounded=0;whiteSpace=wrap;html=1;" parent="YS5yoJDJzt-pK9fz2Nfm-34" vertex="1">
          <mxGeometry width="100" height="270" as="geometry" />
        </mxCell>
        <mxCell id="YS5yoJDJzt-pK9fz2Nfm-25" value="" style="group" parent="YS5yoJDJzt-pK9fz2Nfm-34" vertex="1" connectable="0">
          <mxGeometry x="10" y="11" width="80" height="200" as="geometry" />
        </mxCell>
        <mxCell id="YS5yoJDJzt-pK9fz2Nfm-26" value="" style="rounded=0;whiteSpace=wrap;html=1;" parent="YS5yoJDJzt-pK9fz2Nfm-25" vertex="1">
          <mxGeometry y="60" width="80" height="140" as="geometry" />
        </mxCell>
        <mxCell id="YS5yoJDJzt-pK9fz2Nfm-27" value="Rect father" style="edgeStyle=orthogonalEdgeStyle;rounded=0;orthogonalLoop=1;jettySize=auto;html=1;entryX=0.5;entryY=0;entryDx=0;entryDy=0;" parent="YS5yoJDJzt-pK9fz2Nfm-25" edge="1">
          <mxGeometry x="-0.3333" y="5" relative="1" as="geometry">
            <mxPoint x="40" y="30" as="sourcePoint" />
            <mxPoint x="40" y="60" as="targetPoint" />
            <mxPoint as="offset" />
          </mxGeometry>
        </mxCell>
        <mxCell id="YS5yoJDJzt-pK9fz2Nfm-28" value="barSide" style="text;html=1;strokeColor=none;fillColor=none;align=center;verticalAlign=middle;whiteSpace=wrap;rounded=0;" parent="YS5yoJDJzt-pK9fz2Nfm-25" vertex="1">
          <mxGeometry x="20" width="40" height="30" as="geometry" />
        </mxCell>
        <mxCell id="YS5yoJDJzt-pK9fz2Nfm-29" value="Manager Buttons" style="text;html=1;strokeColor=none;fillColor=none;align=center;verticalAlign=middle;whiteSpace=wrap;rounded=0;" parent="YS5yoJDJzt-pK9fz2Nfm-25" vertex="1">
          <mxGeometry x="20" y="60" width="40" height="30" as="geometry" />
        </mxCell>
        <mxCell id="YS5yoJDJzt-pK9fz2Nfm-30" value="Buttons" style="rounded=1;whiteSpace=wrap;html=1;" parent="YS5yoJDJzt-pK9fz2Nfm-25" vertex="1">
          <mxGeometry x="6.666666666666666" y="100" width="66.66666666666666" height="20" as="geometry" />
        </mxCell>
        <mxCell id="YS5yoJDJzt-pK9fz2Nfm-31" value="" style="rounded=1;whiteSpace=wrap;html=1;" parent="YS5yoJDJzt-pK9fz2Nfm-25" vertex="1">
          <mxGeometry x="6.666666666666666" y="123" width="66.66666666666666" height="20" as="geometry" />
        </mxCell>
        <mxCell id="YS5yoJDJzt-pK9fz2Nfm-32" value="" style="rounded=1;whiteSpace=wrap;html=1;" parent="YS5yoJDJzt-pK9fz2Nfm-25" vertex="1">
          <mxGeometry x="6.666666666666666" y="146" width="66.66666666666666" height="20" as="geometry" />
        </mxCell>
        <mxCell id="YS5yoJDJzt-pK9fz2Nfm-33" value="" style="rounded=1;whiteSpace=wrap;html=1;" parent="YS5yoJDJzt-pK9fz2Nfm-25" vertex="1">
          <mxGeometry x="6.666666666666666" y="169" width="66.66666666666666" height="20" as="geometry" />
        </mxCell>
        <mxCell id="mgcByYOxAvh-oElJZz-j-15" value="Manage queue of events" style="rounded=0;whiteSpace=wrap;html=1;" vertex="1" parent="YS5yoJDJzt-pK9fz2Nfm-34">
          <mxGeometry x="10" y="214" width="80" height="46" as="geometry" />
        </mxCell>
        <mxCell id="YS5yoJDJzt-pK9fz2Nfm-35" value="" style="rounded=0;whiteSpace=wrap;html=1;fillColor=#0050ef;fontColor=#ffffff;strokeColor=#001DBC;" parent="mgcByYOxAvh-oElJZz-j-1" vertex="1">
          <mxGeometry x="100" y="10" width="10" height="60" as="geometry" />
        </mxCell>
      </root>
    </mxGraphModel>
  </diagram>
</mxfile>
